<?xml version="1.0" encoding="utf-8"?>
<!-- Generator: Adobe Illustrator 27.5.0, SVG Export Plug-In . SVG Version: 6.00 Build 0)  -->
<svg version="1.1" xmlns="http://www.w3.org/2000/svg" xmlns:xlink="http://www.w3.org/1999/xlink" x="0px" y="0px"
	 viewBox="0 0 1000 700" style="enable-background:new 0 0 1000 700;" xml:space="preserve">
<g id="Background">
	<rect x="0" style="fill:#EEEFDC;" width="1000" height="700"/>
</g>
<g id="Object">
	<g>
		<defs>
			<rect id="SVGID_1_" x="0" width="1000" height="700"/>
		</defs>
		<clipPath id="SVGID_00000132061874872719391720000006554685286627574677_">
			<use xlink:href="#SVGID_1_"  style="overflow:visible;"/>
		</clipPath>
		<g style="clip-path:url(#SVGID_00000132061874872719391720000006554685286627574677_);">
			<g>
				<g>
					<path style="fill:#FFFFFF;" d="M-228.776,205.744c113.857-9.294,231.825,14.194,334.43,66.189
						c-0.436,1.462-0.541,3.074-0.351,4.656c-102.286-52.195-220.074-75.823-333.746-66.544c-0.924,0.075-1.754-0.475-2.097-1.305
						c-0.087-0.209-0.14-0.436-0.159-0.674C-230.792,206.877-229.931,205.838-228.776,205.744z"/>
				</g>
				<g>
					<path style="fill:#FFFFFF;" d="M53.543,211.456c-0.179,1.507-0.06,2.989,0.267,4.438c-25.176-4.825-39.904-6.852-68.267,13.765
						l-2.422-3.523C12.493,204.785,28.661,206.712,53.543,211.456z"/>
				</g>
				<g>
					<path style="fill:#FFFFFF;" d="M92.839,323.372c1.222,0.191,2.429,0.124,3.615-0.122c-4.535,21.525-6.54,34.137,9.537,59.019
						l-2.924,1.997C86.418,358.498,88.378,344.646,92.839,323.372z"/>
				</g>
				<g>
					<path style="fill:#FFFFFF;" d="M52.126,256.779c12.906,26.982,28.923,60.272,73.299,86.147
						c-0.75,1.231-1.293,2.593-1.596,4.022c-45.845-26.544-62.258-60.645-75.468-88.263c-1.692-3.539-3.333-6.967-4.978-10.253
						l3.734-1.975C48.77,249.767,50.423,253.219,52.126,256.779z"/>
				</g>
				<g>
					<path style="fill:#FFFFFF;" d="M-111.495,206.763c0.868,21.999,20.755,38.794,38.298,53.609
						c1.094,0.925,2.162,1.831,3.23,2.737c-0.043,0.117-0.107,0.221-0.144,0.34c-0.463,1.506-0.718,2.916-0.941,4.34
						c-1.572-1.342-3.172-2.7-4.807-4.081c-14.068-11.879-29.581-24.977-36.364-41.344c-2.005-4.837-3.248-9.965-3.462-15.426
						L-111.495,206.763z"/>
				</g>
				<path style="fill:#FFFFFF;" d="M122.511,312.63c2.128,2.023,4.418,3.87,6.821,5.53c3.881,2.681,8.19,4.933,12.84,5.433
					c9.496,1.022,23.442-6.195,28.856-14.15c6.063-8.907,7.267-21.086,4.583-31.421c-1.977-7.613-7.096-14.688-14.333-17.278
					c-3.989-1.427-8.303-1.432-12.492-1.982c-6.941-0.911-13.68-3.35-20.673-3.615c-10.064-0.381-22.919,8.427-23.255,19.924
					c-0.063,2.158,0.547,4.27,1.151,6.338c1.947,6.667,3.921,13.401,7.286,19.441C115.742,305.245,118.893,309.191,122.511,312.63z"
					/>
				<path style="fill:#FFFFFF;" d="M99.297,415.652c1.633,1.552,3.39,2.97,5.235,4.244c2.978,2.057,6.285,3.786,9.854,4.17
					c7.288,0.784,17.99-4.755,22.145-10.859c4.653-6.836,5.577-16.182,3.518-24.113c-1.517-5.842-5.445-11.272-11-13.26
					c-3.061-1.095-6.372-1.099-9.587-1.521c-5.327-0.699-10.499-2.571-15.866-2.775c-7.724-0.293-17.589,6.467-17.847,15.291
					c-0.048,1.656,0.42,3.277,0.883,4.864c1.494,5.117,3.009,10.285,5.591,14.92C94.102,409.984,96.52,413.013,99.297,415.652z"/>
				<g>
					<g>
						<path style="fill:#FFFFFF;" d="M5.956,134.642c0.457,0.772,0.95,1.541,1.505,2.254c-24.274,9.759-45.147,27.933-64.098,46.206
							c-9.358,9.022-19.754,19.789-28.755,29.28c-0.502-0.011-1.004-0.002-1.503,0.026c-0.7-0.368-1.406-0.722-2.119-1.061
							c9.435-9.992,20.28-21.252,30.111-30.731c19.034-18.353,40.014-36.613,64.541-46.635
							C5.724,134.207,5.829,134.428,5.956,134.642z"/>
					</g>
					<g>
						<path style="fill:#FFFFFF;" d="M-26.894,170.919c9.733,2.575,18.926,5.005,30.037,2.847
							c9.162-1.781,17.926-5.454,26.433-9.779c0.028,0.064,0.041,0.13,0.072,0.194c0.466,0.987,1.17,1.838,2.001,2.548
							c-8.911,4.572-18.131,8.487-27.894,10.384c-11.835,2.3-21.375-0.223-31.476-2.894c-4.88-1.289-10.754-2.364-16.088-3.099
							l1.267-3.638C-37.012,168.246-31.869,169.605-26.894,170.919z"/>
					</g>
					<path style="fill:#FFFFFF;" d="M59.497,168.967c10.392-2.61,19.86-8.203,28.54-14.631c2.924-2.166,5.871-4.547,7.5-7.852
						c3.307-6.711,0.241-14.74-2.822-21.573c-2.904-6.479-6.431-13.568-12.959-15.985c-3.29-1.218-6.899-1.039-10.379-0.691
						c-6.554,0.654-13.212,1.905-18.914,5.292c-13.165,7.819-17.996,24.577-21.695,39.743
						C24.109,172.369,46.598,172.207,59.497,168.967z"/>
					<path style="opacity:0.55;fill:#FFFFFF;" d="M24.313,144.58c8.934,0.699,18.658-1.746,24.101-6.604
						c9.075-8.099,15.515-24.914,7.164-36.103c-2.93-3.925-7.756-5.998-12.548-6.45c-4.792-0.452-9.599,0.546-14.255,1.799
						c-15.115,4.068-33.759,22.836-21.706,39.383C10.626,141.489,17.22,144.026,24.313,144.58z"/>
				</g>
				<path style="opacity:0.55;fill:#FFFFFF;" d="M79.596,237.541c4.48,0.8,9.094,0.646,14.097,0.033
					c5.42-0.665,11.074-1.416,15.588-4.57c8.132-5.682,9.977-17.141,9.843-27.25c-0.059-4.409-0.38-8.93-2.161-12.941
					c-3.109-7.001-9.596-12.354-16.978-13.756c-5.273-1.001-10.615,0.986-15.556,3.131c-23.546,10.218-47.589,30.859-16.397,50.77
					C71.898,235.426,75.697,236.845,79.596,237.541z"/>
				<path style="opacity:0.55;fill:#FFFFFF;" d="M178.17,386.092c3.836-6.97,5.148-15.655,4.09-23.395
					c-1.731-12.667-11.542-21.537-23.237-24.532c-5.875-1.505-33.143-1.316-34.981,6.292c-3.447,14.263-2.681,31.698,7.36,42.775
					c9.581,10.568,25.521,16.615,38.289,8.254C173.275,393.139,176.093,389.867,178.17,386.092z"/>
				<path style="fill:#FFFFFF;" d="M-71.764,278.288c2.406,9.827,3.013,20.962,8.395,29.792
					c4.409,7.233,12.165,12.731,20.463,12.483c7.713-0.231,14.501-5.16,20.273-10.427c3.086-2.816,6.08-5.841,8.115-9.531
					c5.096-9.239,3.248-21.107-1.61-30.481c-5.97-11.522-15.762-20.627-28.146-23.578
					C-60.809,242.607-75.679,262.297-71.764,278.288z"/>
			</g>
			<g style="opacity:0.4;">
				<g>
					<path style="fill:#739175;" d="M-228.776,205.744c113.857-9.294,231.825,14.194,334.43,66.189
						c-0.436,1.462-0.541,3.074-0.351,4.656c-102.286-52.195-220.074-75.823-333.746-66.544c-0.924,0.075-1.754-0.475-2.097-1.305
						c-0.087-0.209-0.14-0.436-0.159-0.674C-230.792,206.877-229.931,205.838-228.776,205.744z"/>
				</g>
				<g>
					<path style="fill:#739175;" d="M53.543,211.456c-0.179,1.507-0.06,2.989,0.267,4.438c-25.176-4.825-39.904-6.852-68.267,13.765
						l-2.422-3.523C12.493,204.785,28.661,206.712,53.543,211.456z"/>
				</g>
				<g>
					<path style="fill:#739175;" d="M92.839,323.372c1.222,0.191,2.429,0.124,3.615-0.122c-4.535,21.525-6.54,34.137,9.537,59.019
						l-2.924,1.997C86.418,358.498,88.378,344.646,92.839,323.372z"/>
				</g>
				<g>
					<path style="fill:#739175;" d="M52.126,256.779c12.906,26.982,28.923,60.272,73.299,86.147
						c-0.75,1.231-1.293,2.593-1.596,4.022c-45.845-26.544-62.258-60.645-75.468-88.263c-1.692-3.539-3.333-6.967-4.978-10.253
						l3.734-1.975C48.77,249.767,50.423,253.219,52.126,256.779z"/>
				</g>
				<g>
					<path style="fill:#739175;" d="M-111.495,206.763c0.868,21.999,20.755,38.794,38.298,53.609
						c1.094,0.925,2.162,1.831,3.23,2.737c-0.043,0.117-0.107,0.221-0.144,0.34c-0.463,1.506-0.718,2.916-0.941,4.34
						c-1.572-1.342-3.172-2.7-4.807-4.081c-14.068-11.879-29.581-24.977-36.364-41.344c-2.005-4.837-3.248-9.965-3.462-15.426
						L-111.495,206.763z"/>
				</g>
				<path style="fill:#CAD6C7;" d="M122.511,312.63c2.128,2.023,4.418,3.87,6.821,5.53c3.881,2.681,8.19,4.933,12.84,5.433
					c9.496,1.022,23.442-6.195,28.856-14.15c6.063-8.907,7.267-21.086,4.583-31.421c-1.977-7.613-7.096-14.688-14.333-17.278
					c-3.989-1.427-8.303-1.432-12.492-1.982c-6.941-0.911-13.68-3.35-20.673-3.615c-10.064-0.381-22.919,8.427-23.255,19.924
					c-0.063,2.158,0.547,4.27,1.151,6.338c1.947,6.667,3.921,13.401,7.286,19.441C115.742,305.245,118.893,309.191,122.511,312.63z"
					/>
				<path style="fill:#CAD6C7;" d="M99.297,415.652c1.633,1.552,3.39,2.97,5.235,4.244c2.978,2.057,6.285,3.786,9.854,4.17
					c7.288,0.784,17.99-4.755,22.145-10.859c4.653-6.836,5.577-16.182,3.518-24.113c-1.517-5.842-5.445-11.272-11-13.26
					c-3.061-1.095-6.372-1.099-9.587-1.521c-5.327-0.699-10.499-2.571-15.866-2.775c-7.724-0.293-17.589,6.467-17.847,15.291
					c-0.048,1.656,0.42,3.277,0.883,4.864c1.494,5.117,3.009,10.285,5.591,14.92C94.102,409.984,96.52,413.013,99.297,415.652z"/>
				<g>
					<g>
						<path style="fill:#739175;" d="M5.956,134.642c0.457,0.772,0.95,1.541,1.505,2.254c-24.274,9.759-45.147,27.933-64.098,46.206
							c-9.358,9.022-19.754,19.789-28.755,29.28c-0.502-0.011-1.004-0.002-1.503,0.026c-0.7-0.368-1.406-0.722-2.119-1.061
							c9.435-9.992,20.28-21.252,30.111-30.731c19.034-18.353,40.014-36.613,64.541-46.635
							C5.724,134.207,5.829,134.428,5.956,134.642z"/>
					</g>
					<g>
						<path style="fill:#739175;" d="M-26.894,170.919c9.733,2.575,18.926,5.005,30.037,2.847
							c9.162-1.781,17.926-5.454,26.433-9.779c0.028,0.064,0.041,0.13,0.072,0.194c0.466,0.987,1.17,1.838,2.001,2.548
							c-8.911,4.572-18.131,8.487-27.894,10.384c-11.835,2.3-21.375-0.223-31.476-2.894c-4.88-1.289-10.754-2.364-16.088-3.099
							l1.267-3.638C-37.012,168.246-31.869,169.605-26.894,170.919z"/>
					</g>
					<path style="fill:#CAD6C7;" d="M59.497,168.967c10.392-2.61,19.86-8.203,28.54-14.631c2.924-2.166,5.871-4.547,7.5-7.852
						c3.307-6.711,0.241-14.74-2.822-21.573c-2.904-6.479-6.431-13.568-12.959-15.985c-3.29-1.218-6.899-1.039-10.379-0.691
						c-6.554,0.654-13.212,1.905-18.914,5.292c-13.165,7.819-17.996,24.577-21.695,39.743
						C24.109,172.369,46.598,172.207,59.497,168.967z"/>
					<path style="opacity:0.55;fill:#739175;" d="M24.313,144.58c8.934,0.699,18.658-1.746,24.101-6.604
						c9.075-8.099,15.515-24.914,7.164-36.103c-2.93-3.925-7.756-5.998-12.548-6.45c-4.792-0.452-9.599,0.546-14.255,1.799
						c-15.115,4.068-33.759,22.836-21.706,39.383C10.626,141.489,17.22,144.026,24.313,144.58z"/>
				</g>
				<path style="opacity:0.55;fill:#739175;" d="M79.596,237.541c4.48,0.8,9.094,0.646,14.097,0.033
					c5.42-0.665,11.074-1.416,15.588-4.57c8.132-5.682,9.977-17.141,9.843-27.25c-0.059-4.409-0.38-8.93-2.161-12.941
					c-3.109-7.001-9.596-12.354-16.978-13.756c-5.273-1.001-10.615,0.986-15.556,3.131c-23.546,10.218-47.589,30.859-16.397,50.77
					C71.898,235.426,75.697,236.845,79.596,237.541z"/>
				<path style="opacity:0.55;fill:#739175;" d="M178.17,386.092c3.836-6.97,5.148-15.655,4.09-23.395
					c-1.731-12.667-11.542-21.537-23.237-24.532c-5.875-1.505-33.143-1.316-34.981,6.292c-3.447,14.263-2.681,31.698,7.36,42.775
					c9.581,10.568,25.521,16.615,38.289,8.254C173.275,393.139,176.093,389.867,178.17,386.092z"/>
				<path style="fill:#CAD6C7;" d="M-71.764,278.288c2.406,9.827,3.013,20.962,8.395,29.792
					c4.409,7.233,12.165,12.731,20.463,12.483c7.713-0.231,14.501-5.16,20.273-10.427c3.086-2.816,6.08-5.841,8.115-9.531
					c5.096-9.239,3.248-21.107-1.61-30.481c-5.97-11.522-15.762-20.627-28.146-23.578
					C-60.809,242.607-75.679,262.297-71.764,278.288z"/>
			</g>
		</g>
		<g style="clip-path:url(#SVGID_00000132061874872719391720000006554685286627574677_);">
			<g>
				<path style="fill:#739175;" d="M478.113-217.224c47.94,88.646,72.303,192.37,69.371,293.909
					c-1.274,0.172-2.543,0.666-3.684,1.386c3.199-101.353-20.993-204.982-68.855-293.484c-0.389-0.72-0.266-1.587,0.245-2.162
					c0.129-0.145,0.282-0.27,0.458-0.37C476.524-218.446,477.627-218.123,478.113-217.224z"/>
			</g>
			<g>
				<path style="fill:#739175;" d="M575.008,12.896c-1.216,0.396-2.306,1.024-3.296,1.807c-5.342-22.069-9.076-34.694-35.004-50.212
					l1.823-3.221C565.382-22.659,569.709-8.906,575.008,12.896z"/>
			</g>
			<g>
				<path style="fill:#739175;" d="M503.579,84.783c0.292,1.055,0.777,2.007,1.39,2.877c-18.076,4.057-28.433,6.961-41.681,28.873
					l-2.575-1.646C474.433,92.195,485.722,88.809,503.579,84.783z"/>
			</g>
			<g>
				<path style="fill:#739175;" d="M539.865,28.007c-15.99,20.104-35.684,44.983-39.541,90.114c-1.21-0.165-2.445-0.114-3.646,0.153
					c3.841-46.557,24.013-72.047,40.38-92.625c2.098-2.636,4.129-5.191,6.05-7.699l2.848,2.308
					C544.02,22.781,541.975,25.356,539.865,28.007z"/>
			</g>
			<g>
				<path style="fill:#739175;" d="M519.4-122.113c-16.5,8.592-22.201,30.681-27.23,50.167c-0.314,1.215-0.624,2.403-0.933,3.591
					c-0.105,0.007-0.207-0.007-0.312,0.006c-1.317,0.166-2.486,0.466-3.654,0.796c0.462-1.751,0.925-3.531,1.395-5.347
					c4.032-15.625,8.477-32.856,18.551-44.206c2.978-3.355,6.45-6.198,10.547-8.33L519.4-122.113z"/>
			</g>
			<path style="fill:#CAD6C7;" d="M522.43,104.9c-0.782,2.445-1.373,4.957-1.78,7.494c-0.657,4.096-0.832,8.386,0.453,12.321
				c2.625,8.038,13.142,16.715,21.163,18.236c8.981,1.703,18.72-1.692,25.655-7.567c5.108-4.328,8.679-11,8.062-17.776
				c-0.34-3.734-1.884-7.221-2.966-10.803c-1.793-5.934-2.346-12.253-4.652-17.998c-3.318-8.267-14.66-15.493-23.567-11.64
				c-1.672,0.723-3.067,1.973-4.431,3.203c-4.396,3.964-8.834,7.974-12.243,12.859C525.646,96.783,523.761,100.744,522.43,104.9z"/>
			<path style="fill:#CAD6C7;" d="M435.377,123.099c-0.601,1.876-1.054,3.804-1.366,5.751c-0.504,3.144-0.639,6.436,0.348,9.456
				c2.015,6.169,10.086,12.828,16.241,13.995c6.892,1.307,14.367-1.299,19.689-5.807c3.92-3.321,6.661-8.442,6.187-13.642
				c-0.261-2.866-1.446-5.542-2.276-8.29c-1.376-4.554-1.801-9.404-3.57-13.812c-2.547-6.345-11.251-11.89-18.086-8.933
				c-1.283,0.555-2.354,1.514-3.401,2.458c-3.374,3.042-6.78,6.12-9.396,9.868C437.845,116.869,436.398,119.909,435.377,123.099z"/>
			<g>
				<g>
					<path style="fill:#739175;" d="M616.64-53.098c-0.426,0.646-0.836,1.32-1.183,2.024c-16.164-16.11-37.539-26.453-58.3-35.209
						c-10.251-4.324-22.208-8.861-32.689-12.728c-0.172-0.41-0.359-0.812-0.559-1.205c0.03-0.697,0.048-1.395,0.051-2.093
						c11.02,4.038,23.514,8.761,34.284,13.303c20.852,8.794,42.331,19.193,58.787,35.412
						C616.889-53.442,616.758-53.277,616.64-53.098z"/>
				</g>
				<g>
					<path style="fill:#739175;" d="M577.135-66.625c1.523,8.786,2.964,17.084,8.598,25.287
						c4.647,6.763,10.598,12.525,16.954,17.846c-0.039,0.046-0.085,0.08-0.123,0.128c-0.587,0.731-0.984,1.604-1.229,2.531
						c-6.69-5.559-12.989-11.603-17.94-18.809c-6.002-8.736-7.496-17.348-9.078-26.465c-0.765-4.405-2.051-9.536-3.402-14.108
						l3.234-0.281C575.549-75.757,576.354-71.114,577.135-66.625z"/>
				</g>
				<path style="fill:#CAD6C7;" d="M609.613,2.467c5.722,7.459,13.392,13.102,21.417,17.808c2.704,1.586,5.581,3.112,8.691,3.242
					c6.315,0.265,11.351-5.092,15.473-10.017c3.91-4.67,8.062-10.062,7.567-16.202c-0.249-3.095-1.681-5.946-3.194-8.633
					c-2.851-5.06-6.195-9.99-10.828-13.382c-10.697-7.831-25.236-5.723-38.152-3.272C594.32-24.901,602.511-6.792,609.613,2.467z"/>
				<path style="opacity:0.55;fill:#739175;" d="M615.629-34.703c2.67,7.467,8.026,14.447,13.691,17.101
					c9.444,4.426,24.604,3.598,30.159-7.162c1.949-3.775,1.802-8.417,0.428-12.45s-3.861-7.559-6.488-10.87
					c-8.531-10.752-29.559-19.081-37.881-3.41C613.082-46.869,613.509-40.632,615.629-34.703z"/>
			</g>
			<path style="opacity:0.55;fill:#739175;" d="M564.419,43.299c0.996,3.906,2.768,7.578,5.031,11.4
				c2.452,4.14,5.054,8.438,9.083,10.954c7.259,4.532,16.677,1.911,24.354-1.823c3.348-1.629,6.688-3.51,9.114-6.388
				c4.235-5.022,5.999-12.183,4.423-18.649c-1.126-4.619-4.561-8.221-7.972-11.444c-16.254-15.357-40.65-27.376-44.679,4.963
				C563.275,36.322,563.553,39.899,564.419,43.299z"/>
			<path style="opacity:0.55;fill:#739175;" d="M486.256,176.214c6.703,0.599,13.81-1.456,19.345-5.087
				c9.059-5.942,12.318-17.049,10.412-27.571c-0.957-5.286-10.882-27.246-17.355-26.003c-12.136,2.332-25.185,9.203-30.047,21.288
				c-4.64,11.53-3.543,26.576,7.425,33.892C479.115,174.787,482.626,175.889,486.256,176.214z"/>
			<path style="fill:#CAD6C7;" d="M478.992-64.362c-6.647,5.468-14.938,9.953-19.755,17.468c-3.946,6.156-5.365,14.393-2.199,21.008
				c2.943,6.148,9.145,9.864,15.239,12.638c3.259,1.483,6.644,2.816,10.194,3.137c8.888,0.803,17.294-4.947,22.715-12.233
				c6.663-8.956,10.109-20.132,7.922-31.195C510.189-68.31,489.808-73.26,478.992-64.362z"/>
		</g>
		<path style="clip-path:url(#SVGID_00000132061874872719391720000006554685286627574677_);fill:#D6C98A;" d="M-55.204,249.859
			c0.641,0.144,1.283,0.283,1.92,0.433c0.137,0.032,0.541,0.139,0.885,0.229c7.202,15.077,15.957,27.903,27.822,38.717
			c1.1-1.005,3.197-1.783,4.487-2.222c4.811-1.638,9.941-3.266,14.954-3.786c1.714-0.178,5.396-1.489,7.889-1.357
			c0.582-2.503,4.46-4.66,6.524-6.16c1.909-1.388,4.198-2.728,6.462-2.129c3.16,0.836,6.377,6.025,5.729,9.343
			c-0.014,0.074-0.03,0.147-0.05,0.219c-0.6,2.357-2.912,3.84-5.201,4.47c-3.952,1.088-9.574,0.319-12.542-2.878
			c-0.127-0.137-0.215-0.272-0.316-0.408c-3.083,0.276-8.923,1.565-9.474,1.692c-5.515,1.271-10.769,2.226-15.932,4.914
			c-0.144,0.075-0.301,0.13-0.454,0.192c2.127,1.838,4.329,3.63,6.661,5.346c10.229,7.522,21.328,14.195,32.994,19.359
			c5.428-2.986,11.041-5.729,16.729-8.228c0.194-1.301,0.778-2.838,1.593-4.538c1.802-3.763,4.051-6.554,8.259-7.387
			c10.01-1.983,12.662,10.993,3.45,14.514c-2.305,0.881-4.685,1.661-7.143,1.77c-2.985,0.132-4.712-0.408-5.563-1.441
			c-4.707,2.083-9.34,4.351-13.874,6.776c4.475,1.845,9.028,3.451,13.646,4.793c0.012-0.017,0.015-0.035,0.027-0.052
			c1.283-1.781,3.569-2.383,5.661-2.918c4.013-1.027,8.007-2.249,12.128-2.594c1.665-0.139,3.676,0.011,5.748,0.438
			c7.647,1.576,16.106,6.922,10.932,15.394c-2.122,3.474-6.181,5.361-10.167,5.545c-3.986,0.184-7.909-1.136-11.5-2.924
			c-2.598-1.294-11.823-5.633-13.253-9.957c-2.789-0.806-5.607-1.727-8.444-2.762c0.294,3.182,1.193,6.306,2.614,9.052
			c4.786,0.751,11.271,5.938,12.232,9.382c1.002,3.606-1.387,7.69-4.84,8.9c-4.213,1.477-8.607-0.913-10.858-4.584
			c-2.127-3.469-2.778-7.391-1.363-11.305c0.368-1.019,0.998-1.654,1.772-2.04c-1.489-3.23-2.331-6.88-2.485-10.492
			c-11.349-4.423-22.87-10.56-33.635-17.827c2.086,7.979,6.501,15.212,10.566,21.714c4.815,1.539,7.713,6.391,5.236,11.405
			c-2.816,5.699-9.638,4.514-10.9-2.063c-0.567-2.958,0.328-6.027,1.689-8.697c0.142-0.278,0.324-0.537,0.544-0.748
			c-4.395-7.088-8.934-15.013-10.565-23.987c-6.157-4.362-12.031-9.076-17.416-14.057c-3.814-3.526-6.614-7.865-9.746-12.042
			c-5.321-7.096-10.743-14.391-13.345-22.943c-0.209-0.689-0.348-1.411-0.29-2.122C-55.337,249.823-55.271,249.844-55.204,249.859z"
			/>
		<path style="opacity:0.55;clip-path:url(#SVGID_00000132061874872719391720000006554685286627574677_);fill:#739175;" d="
			M43.768,108.116c6.736-17.539-8.754-47.763-18.929-58.537c-40.785-43.143-57.792,88.178,5.425,70.237
			C37.451,117.775,41.679,113.556,43.768,108.116z"/>
		<path style="clip-path:url(#SVGID_00000132061874872719391720000006554685286627574677_);fill:#D6C98A;" d="M33.087-26.444
			c0.008,0.453,0.012,0.906,0.024,1.359c0.002,0.097,0.017,0.385,0.03,0.63c8.717,6.87,15.786,14.494,21.155,23.962
			c-0.789,0.613-1.565,1.932-2.016,2.748c-1.685,3.045-3.405,6.307-4.399,9.636c-0.34,1.138-1.666,3.461-1.91,5.168
			c-1.681,0.064-3.576,2.408-4.809,3.609c-1.142,1.111-2.303,2.486-2.217,4.1c0.12,2.252,3.022,5.117,5.235,5.115
			c0.049,0,0.098-0.001,0.147-0.005c1.59-0.096,2.846-1.467,3.552-2.936c1.219-2.535,1.467-6.447-0.191-8.88
			c-0.071-0.104-0.146-0.182-0.22-0.268c0.583-2.053,2.18-5.842,2.334-6.198c1.542-3.571,2.847-7.005,5.251-10.151
			c0.067-0.088,0.123-0.187,0.183-0.282c0.898,1.684,1.757,3.412,2.549,5.22c3.474,7.925,6.289,16.327,8.062,24.916
			c-2.63,3.285-5.129,6.728-7.481,10.254c-0.86-0.04-1.922,0.153-3.12,0.482c-2.65,0.725-4.736,1.882-5.825,4.624
			c-2.591,6.523,5.378,10.031,8.851,4.252c0.869-1.446,1.683-2.956,2.076-4.608c0.478-2.006,0.36-3.248-0.19-3.961
			c1.956-2.916,4.021-5.757,6.174-8.51c0.593,3.277,1.022,6.574,1.274,9.881c-0.013,0.006-0.024,0.005-0.037,0.011
			c-1.311,0.635-1.998,2.105-2.617,3.452c-1.188,2.584-2.497,5.131-3.262,7.878c-0.309,1.11-0.478,2.493-0.477,3.954
			c0.002,5.391,2.314,11.829,8.428,9.439c2.507-0.98,4.252-3.483,4.896-6.16c0.643-2.678,0.315-5.51-0.359-8.18
			c-0.487-1.932-2.053-8.756-4.636-10.296c-0.149-1.997-0.368-4.028-0.658-6.087c2.001,0.619,3.886,1.64,5.459,2.965
			c-0.149,3.343,2.321,8.422,4.402,9.528c2.18,1.155,5.113,0.074,6.345-2.107c1.502-2.66,0.549-5.954-1.507-7.964
			c-1.944-1.899-4.372-2.857-7.068-2.414c-0.702,0.115-1.192,0.458-1.541,0.932c-1.875-1.435-4.104-2.487-6.4-3.067
			c-1.34-8.275-3.755-16.894-6.995-25.148c4.841,2.466,8.896,6.412,12.529,10.024c0.352,3.467,3.081,6.07,6.622,5.052
			c4.025-1.157,4.165-5.937,0.114-7.66c-1.822-0.774-3.908-0.572-5.799-0.002c-0.197,0.06-0.387,0.149-0.551,0.27
			c-3.965-3.913-8.448-8.035-13.986-10.324c-1.985-4.748-4.233-9.351-6.717-13.658c-1.758-3.05-4.171-5.52-6.436-8.193
			c-3.848-4.542-7.81-9.179-12.951-12.07c-0.414-0.232-0.859-0.422-1.322-0.476C33.081-26.539,33.086-26.492,33.087-26.444z"/>
		<g style="clip-path:url(#SVGID_00000132061874872719391720000006554685286627574677_);">
			<path style="fill:#D6C98A;" d="M441.038,80.916c2.096,7.162,7.673,14.787,14.879,9.15c2.955-2.312,4.305-6.34,4.121-10.157
				c-0.184-3.817-1.721-7.449-3.654-10.726c-1.724-2.923-8.521-15.078-12.824-11.137c-1.498,1.372-1.841,3.602-2.142,5.642
				c-0.576,3.911-1.33,7.823-1.28,11.781C440.158,77.068,440.47,78.975,441.038,80.916z"/>
			<path style="fill:#D6C98A;" d="M420.555,69.252c-0.277,2.941,0.608,5.835,3.07,7.293c3.731,2.21,5.767,1.154,6.835-1.207
				c2.539-3.513,2.232-11.893,2.865-16.042c0.04-0.264,0.079-0.541-0.008-0.794c-0.306-0.886-1.591-0.598-2.389-0.145
				C426.037,61.138,421.18,62.607,420.555,69.252z"/>
			<path style="fill:#D6C98A;" d="M468.573,56.821c0.966-4.14-1.582-8.134-5.098-9.977c-3.324-1.742-6.927-2.036-10.342-0.362
				c-5.938,2.91,3.144,14.77,7.817,15.692C464.298,62.832,467.781,60.214,468.573,56.821z"/>
			<path style="fill:#D6C98A;" d="M429.283,46.503c1.268-2.207,1.826-5.15,0.816-8.427c-0.389-1.264-0.975-2.533-2.017-3.321
				c-3.538-2.677-5.965,2.698-7.009,5.259c-0.731,1.794-1.475,3.659-1.402,5.605C419.94,52.721,426.421,51.483,429.283,46.503z"/>
			<g>
				<path style="fill:#D6C98A;" d="M349.141-38.107l-0.924,1.862c35.619,18.724,78.772,46.578,96.461,96.181l1.917-0.71
					C428.66,8.937,385.093-19.207,349.141-38.107z"/>
			</g>
			<g>
				<path style="fill:#D6C98A;" d="M437.09,41.398c-2.657,6.39-5.019,13.008-7.021,19.672l1.951,0.625
					c1.982-6.595,4.319-13.145,6.949-19.468L437.09,41.398z"/>
			</g>
			<g>
				<path style="fill:#D6C98A;" d="M440.973,47.156l0.172,2.086c4.237-0.345,8.717,0.624,12.293,2.658l0.984-1.829
					C450.503,47.842,445.601,46.779,440.973,47.156z"/>
			</g>
			<g>
				<polygon style="fill:#D6C98A;" points="425.316,24.029 425.177,35.226 427.218,35.263 427.357,24.067 				"/>
			</g>
			<g>
				<path style="fill:#D6C98A;" d="M415.933,10.537l0.017,2.093c10.357-0.037,20.172,5.932,28.059,10.728l1.034-1.799
					C436.941,16.631,426.855,10.498,415.933,10.537z"/>
			</g>
			<path style="fill:#D6C98A;" d="M451.177,18.341c6.058,0.657,7.728,7.067,2.823,10.224c-4.908,3.159-10.24-0.323-11.353-5.992
				c-0.067-0.341-0.126-0.703-0.011-1.03c0.136-0.388,0.488-0.646,0.826-0.87C445.756,19.154,448.453,18.045,451.177,18.341z"/>
			<path style="fill:#D6C98A;" d="M405.003,23.372c-0.318-1.954-1.41-3.983-3.585-5.416c-0.839-0.553-1.796-1.009-2.789-0.948
				c-3.374,0.206-2.21,4.627-1.589,6.677c0.435,1.436,0.897,2.92,1.879,4.038C402.503,31.802,405.721,27.78,405.003,23.372z"/>
			<g>
				<path style="fill:#D6C98A;" d="M391.387,0.224l-1.431,1.485c4.968,5.035,8.054,11.775,9.171,20.032l2.022-0.277
					C399.985,12.861,396.609,5.516,391.387,0.224z"/>
			</g>
			<path style="fill:#D6C98A;" d="M398.412,64.107c1.091,5.652-0.033,12.883-6.938,11.651c-2.832-0.505-5.172-2.766-6.39-5.439
				c-1.218-2.673-1.447-5.711-1.282-8.651c0.148-2.622,0.51-13.39,4.835-12.262c1.506,0.393,2.525,1.791,3.449,3.075
				c1.77,2.461,3.662,4.858,5.022,7.579C397.658,61.16,398.116,62.576,398.412,64.107z"/>
			<path style="fill:#D6C98A;" d="M407.984,48.972c2.109,2.564,2.675,5.73-0.839,7.706c-1.527,0.859-4.337,0.672-5.684-0.456
				c-0.912-0.763-1.503-1.846-2.073-2.901c-0.497-0.919-0.993-1.838-1.489-2.757c-0.498-0.922-1.009-1.889-1.04-2.941
				C396.668,41.347,406.351,46.987,407.984,48.972z"/>
			<path style="fill:#D6C98A;" d="M371.128,57.656c-2.117-2.476-1.784-6.128-0.032-8.664c1.656-2.396,4.013-3.906,6.934-4.003
				c5.079-0.17,3.054,11.227,0.187,13.554C376.163,60.207,372.863,59.685,371.128,57.656z"/>
			<g>
				<path style="fill:#D6C98A;" d="M392.304-9.215c-6.078,20.259-8.037,41.764-5.516,60.555l2.022-0.275
					c-2.481-18.495-0.547-39.681,5.445-59.655L392.304-9.215z"/>
			</g>
			<g>
				<path style="fill:#D6C98A;" d="M387.341,35.506l-1.285,1.619c4.014,3.357,7.911,6.974,11.581,10.752l1.443-1.473
					C395.36,42.575,391.41,38.908,387.341,35.506z"/>
			</g>
			<g>
				<path style="fill:#D6C98A;" d="M386.478,40.812c-3.334,1.442-6.345,3.98-8.26,6.964l1.707,1.157
					c1.7-2.649,4.38-4.906,7.354-6.191L386.478,40.812z"/>
			</g>
			<g>
				<path style="fill:#D6C98A;" d="M388.083,7.535c-7.43,4.055-11.94,12.414-15.563,19.131l1.787,1.02
					c3.494-6.476,7.843-14.536,14.742-18.302L388.083,7.535z"/>
			</g>
			<path style="fill:#D6C98A;" d="M367.408,26.558c-3.826,2.734-2.557,8.147,1.918,8.693c4.477,0.546,6.761-4.033,5.394-8.685
				c-0.082-0.28-0.178-0.573-0.377-0.775c-0.237-0.24-0.569-0.303-0.88-0.345C371.355,25.159,369.129,25.328,367.408,26.558z"/>
		</g>
		<g style="clip-path:url(#SVGID_00000132061874872719391720000006554685286627574677_);">
			<path style="fill:#FFFFFF;" d="M367.536,81.115c-5.049-9.579-12.543-17.949-21.934-22.995
				c-7.664-4.117-18.619-7.464-27.264-5.215c-1.981,0.515-3.683,1.233-5.152,2.117c-0.162-19.489-7.99-38.197-15.591-56.31
				c-5.449-12.983-11.083-26.409-13.811-39.962l-1.323,0.282c4.975-11.536,9.666-23.156,14.031-34.827l-2.607-1.032
				c-7.293,19.498-15.48,38.857-24.434,57.913c-7.501,4.619-15.833,7.809-23.918,10.867c-7.126,2.694-14.495,5.482-21.343,9.272
				c-13.56,7.506-24.696,18.656-35.464,29.44l-3.957,3.948c-1.116-1.022-2.524-1.967-4.273-2.81
				c-19.361-9.32-40.84-18.116-60.772-10.199c-4.128,1.64-8.719,5.18-8.502,10.377c0.097,2.339,1.2,4.42,2.367,6.288
				c8.319,13.31,28.299,26.63,44.818,27.814c-0.103,0.713-0.178,1.432-0.22,2.156c-0.062,1.074-0.073,2.156-0.077,3.228
				c-0.024,7.483,3.265,14.446,8.55,19.318c-10.383,0.119-20.85-0.513-30.983-2.87C131.773,73.31,97.439,57.194,82.341,65.4
				c-2.443,1.328-4.243,3.618-5.831,5.944c-2.878,4.215-5.299,8.759-7.205,13.522c-2.382,5.953-3.593,13.711,1.018,18.065
				c2.936,2.772,7.261,3.142,11.241,3.369c15.517,0.885,31.773,1.632,45.848-5.144c5.908-2.844,8.462-6.413,8.616-10.216
				c11.268,2.5,22.862,2.957,34.273,2.652c2.169,1.392,4.545,2.491,7.095,3.19c8.265,2.268,18.084,1.441,23.943-4.969
				c0.011-0.012,0.02-0.025,0.031-0.037c1.734-0.356,3.402-0.849,4.946-1.582c-3.205,7.7-7.647,18.742-12.057,30.891l-0.114-0.262
				c-10.661,4.879-20.689,11.74-29.25,19.965c-2.349-1.463-5.143-2.77-8.436-3.886c-29.723-10.072-84.153,9.437-92.689,42.272
				c-3.069,11.803,0.591,25.818,10.479,32.592c8.842,6.057,20.39,5.439,30.91,3.915c8.958-1.298,17.902-3.126,26.35-6.431
				c-0.658,2.053-1.237,4.135-1.767,6.21c-4.952,19.365-6.666,39.6-5.046,59.554c11.865,3.525,24.6-4.065,31.796-14.384
				c7.197-10.32,10.308-22.954,14.389-34.945c3.986-11.709,28.282-50.933,15.696-57.778c-0.935-0.508-2.006-0.786-3.172-0.894
				c5.497-26.971,20.732-64.512,27.177-79.737c5.296-4.701,9.457-11.254,13.146-17.106l0.685-1.087
				c2.501-3.958,4.969-7.951,7.408-11.966c1.502,4.743,3.537,9.289,5.55,13.697c1.818,3.984,3.7,8.104,5.112,12.285
				c0.277,0.82,0.524,1.65,0.769,2.481c-0.962,3.878-0.589,8.191,1.738,11.362c0.301,0.411,0.633,0.785,0.98,1.14
				c0.583,3.683,1.043,7.381,1.488,11.028l4.712,38.572c-0.613,0.314-1.186,0.743-1.728,1.178
				c-9.121,7.325-26.12,18.215-27.155,31.029c-1.089,13.48,5.186,30.948,11.756,42.373c1.778,3.093,3.964,6.226,7.221,7.526
				c5.58,2.228,11.54-1.713,16.296-5.451c6.282-4.938,12.979-10.528,14.719-18.459c1.408-6.415-0.758-13.026-2.895-19.224
				c-3.904-11.323-7.807-22.646-11.711-33.968c-0.714-2.072-1.898-4.474-3.712-5.217l-4.729-38.718
				c-0.338-2.765-0.686-5.56-1.085-8.36c2.971,1.51,6.567,1.998,9.937,1.914c8.929-0.221,18.194-3.906,23.286-11.45
				c4.632-6.863,5.419-20.057-0.73-26.869c2.966-3.256,4.296-6.874,5.509-10.195l0.173-0.472
				c3.925-10.711,9.412-21.391,16.296-31.799c4.104,11.666,7.037,23.552,6.774,35.635c-5.659,5.442-6.318,14.432-6.682,23.393
				c-0.226,5.566-0.447,11.201,0.677,16.651c2.492,12.086,13.591,21.058,25.229,22.675c13.436,1.867,30.418-4.514,37.588-15.721
				C371.264,97.813,372.18,89.926,367.536,81.115z M193.018,124.553c-5.046,14.178-9.861,29.458-12.445,42.333l0.616,0.13
				c-2.575,0.215-5.502,1.104-8.593,2.453c4.146-10.108,3.699-20.02-5.327-27.025C174.887,135.223,183.677,129.12,193.018,124.553z
				 M209.724,14.81c-1.427,11.624-4.341,23.286-8.561,34.351c-1.775-0.904-3.87-0.919-5.963-1.321
				c-2.613-0.502-5.232-0.842-7.852-1.002c1.255-3.5,1.281-7.014-0.727-10.066l4.053-4.047
				C196.782,26.609,203.025,20.397,209.724,14.81z M267.349-14.426c-5.734,12.007-11.775,23.885-18.112,35.584
				c-8.462,15.624-17.602,31.223-27.167,46.362l-0.686,1.087c-3.849,6.108-8.213,13.031-13.735,17.471
				c-1.037,0.833-2.211,1.469-3.482,1.964c5.414-8.79,5.624-20.748,2.206-30.306c-0.678-1.895-1.617-4.666-2.958-6.563
				c4.862-12.478,8.082-25.741,9.423-38.879c4.025-3.154,8.217-6.068,12.677-8.536c6.673-3.694,13.947-6.446,20.982-9.106
				C253.47-7.986,260.613-10.753,267.349-14.426z M302.431,18.229c-7.538,11.122-13.508,22.577-17.721,34.077l-0.173,0.475
				c-1.213,3.318-2.384,6.51-5,9.334c-0.357-0.252-0.724-0.494-1.113-0.712c-9.222-5.147-21.324,5.26-27.493,11.827
				c-2.323,2.472-4.528,5.15-6.078,8.173c-1.423-4.056-3.207-7.996-4.948-11.81c-2.314-5.068-4.691-10.307-6.137-15.729
				c6.218-10.342,12.228-20.813,17.913-31.308c7.008-12.937,13.64-26.098,19.911-39.406c0.047-0.03,0.096-0.053,0.143-0.083
				l-0.06-0.1c3.378-7.173,6.646-14.391,9.801-21.642c2.911,13.149,8.315,26.04,13.554,38.525
				C297.571,5.911,300.137,12.039,302.431,18.229z"/>
			<g>
				<path style="fill:#CAD6C7;" d="M63.769,179.174c-3.068,11.803,0.591,25.818,10.479,32.592c8.841,6.057,20.39,5.439,30.91,3.915
					c9.591-1.389,19.174-3.364,28.141-7.135c24.938-10.489,66.063-57.105,23.159-71.645
					C126.736,126.83,72.305,146.339,63.769,179.174z"/>
				<path style="opacity:0.55;fill:#739175;" d="M140.232,192.904c-5.603,6.145-8.408,14.41-10.492,22.556
					c-4.952,19.365-6.666,39.6-5.046,59.554c11.865,3.525,24.6-4.065,31.796-14.385c7.196-10.32,10.308-22.954,14.389-34.944
					c3.986-11.709,28.282-50.933,15.696-57.778C175.539,161.904,146.678,185.836,140.232,192.904z"/>
				<path style="fill:#739175;" d="M296.491-75.794c-7.4,19.787-15.716,39.432-24.818,58.762l0.06,0.1
					c-0.047,0.03-0.096,0.053-0.143,0.083c-6.271,13.307-12.903,26.468-19.911,39.406c-5.685,10.496-11.695,20.966-17.913,31.308
					c1.446,5.422,3.823,10.661,6.137,15.729c1.85,4.051,3.763,8.241,5.223,12.565c2.915,8.64,4.03,17.765,5.108,26.593l5.649,46.255
					l-2.774,0.359l-5.65-46.255c-1.059-8.681-2.156-17.656-4.974-26.011c-1.412-4.181-3.294-8.3-5.112-12.285
					c-2.012-4.408-4.048-8.954-5.55-13.697c-2.439,4.014-4.908,8.007-7.408,11.966l-0.685,1.087
					c-3.689,5.852-7.851,12.405-13.146,17.106c-6.481,15.309-21.854,53.187-27.272,80.189l-2.738-0.58
					c2.584-12.875,7.399-28.154,12.445-42.332c-10.832,5.297-20.932,12.649-29.314,21.427l-1.993-2.014
					c9.207-9.645,20.425-17.646,32.434-23.143l0.114,0.262c4.41-12.149,8.852-23.191,12.057-30.891
					c-4.654,2.212-10.37,2.371-15.951,2.492c-1.736,0.037-3.442,0.074-5.068,0.177c-17.981,1.157-37.043,1.848-55.017-3.378
					l0.76-2.764c17.553,5.102,36.343,4.415,54.083,3.273c1.661-0.106,3.407-0.144,5.182-0.182
					c6.413-0.138,13.042-0.281,17.343-3.736c5.522-4.44,9.886-11.363,13.735-17.471l0.687-1.087
					c9.564-15.139,18.705-30.738,27.167-46.362c6.337-11.699,12.378-23.576,18.112-35.584c-6.736,3.673-13.879,6.441-20.852,9.077
					c-7.036,2.661-14.309,5.412-20.983,9.106c-4.459,2.468-8.651,5.382-12.677,8.536c-1.658,16.246-6.188,32.687-13.147,47.594
					l-2.52-1.244c6.421-13.753,10.712-28.833,12.553-43.834c-6.699,5.587-12.942,11.799-19.049,17.915l-4.211,4.203l-1.941-2.07
					l4.201-4.192c10.768-10.784,21.904-21.934,35.464-29.44c6.848-3.791,14.217-6.578,21.343-9.272
					c8.085-3.058,16.417-6.248,23.918-10.867c8.954-19.056,17.141-38.414,24.433-57.913L296.491-75.794z"/>
				<path style="fill:#CAD6C7;" d="M250.443,148.861c-9.121,7.325-26.12,18.215-27.155,31.029
					c-1.088,13.48,5.186,30.948,11.756,42.373c1.778,3.093,3.964,6.226,7.221,7.526c5.58,2.228,11.54-1.713,16.296-5.451
					c6.282-4.938,12.979-10.528,14.719-18.459c1.408-6.415-0.758-13.026-2.895-19.224c-3.903-11.323-7.807-22.646-11.71-33.968
					c-0.889-2.578-2.502-5.671-5.153-5.438C252.356,147.352,251.364,148.121,250.443,148.861z"/>
				<path style="fill:#CAD6C7;" d="M82.34,65.4c-2.443,1.328-4.243,3.618-5.831,5.944c-2.878,4.215-5.299,8.759-7.205,13.522
					c-2.382,5.953-3.593,13.711,1.018,18.065c2.936,2.772,7.261,3.142,11.241,3.369c15.517,0.885,31.773,1.632,45.848-5.144
					C157.038,86.894,102.515,54.436,82.34,65.4z"/>
				<path style="fill:#CAD6C7;" d="M158.186,68.241c-0.063,1.074-0.073,2.156-0.077,3.228c-0.037,11.746,8.066,22.236,19.286,25.314
					c8.265,2.268,18.084,1.441,23.943-4.969c8.104-8.867,8.971-23.068,5.033-34.08c-0.848-2.37-2.095-6.136-4.039-7.812
					c-1.977-1.704-4.561-1.589-7.132-2.083c-7.148-1.374-14.336-1.566-21.485-0.038c-4.999,1.068-7.414,4.302-10.458,8.367
					c-1.623,2.167-3.272,4.382-4.163,6.96C158.527,64.77,158.288,66.496,158.186,68.241z"/>
				<path style="opacity:0.55;fill:#739175;" d="M113.588,38.27c10.308,16.491,38.519,33.009,55.864,26.425
					c10.744-4.078,29.393-24.046,11.042-32.891c-19.361-9.32-40.84-18.116-60.772-10.199c-4.128,1.64-8.719,5.18-8.502,10.377
					C111.318,34.321,112.421,36.402,113.588,38.27z"/>
				<g>
					<path style="fill:#739175;" d="M283.784-41.25l-2.737,0.583c2.786,13.84,8.478,27.402,13.982,40.518
						c7.792,18.567,15.849,37.766,15.367,57.486l2.794,0.073c0.498-20.352-7.683-39.846-15.595-58.698
						C292.146-14.27,286.512-27.696,283.784-41.25z"/>
				</g>
				<g>
					<path style="fill:#739175;" d="M303.238,17.021c-7.929,11.499-14.163,23.37-18.529,35.286l-0.173,0.475
						c-1.787,4.889-3.474,9.507-9.849,13.075l1.336,2.524c7.289-4.079,9.329-9.662,11.129-14.588l0.173-0.472
						c4.282-11.686,10.403-23.339,18.193-34.638L303.238,17.021z"/>
				</g>
				<path style="opacity:0.55;fill:#739175;" d="M367.207,104.154c-7.171,11.207-24.152,17.588-37.588,15.721
					c-11.638-1.617-22.736-10.589-25.229-22.675c-1.124-5.449-0.903-11.085-0.677-16.65c0.491-12.087,1.509-24.231,14.625-27.644
					c8.645-2.249,19.6,1.097,27.264,5.215c9.392,5.046,16.885,13.416,21.934,22.995C372.18,89.926,371.264,97.812,367.207,104.154z"
					/>
				<path style="fill:#CAD6C7;" d="M250.928,73.231c-3.011,3.205-5.838,6.748-7.274,10.952s-1.273,9.201,1.337,12.759
					c3.135,4.275,8.889,5.493,14.095,5.364c8.928-0.221,18.194-3.906,23.286-11.45c5.323-7.886,5.572-24.137-3.95-29.452
					C269.2,56.257,257.098,66.664,250.928,73.231z"/>
			</g>
		</g>
		<path style="opacity:0.5;clip-path:url(#SVGID_00000132061874872719391720000006554685286627574677_);fill:#CAD6C7;" d="
			M513.823,13.323c0.166,8.757-1.136,17.542-3.833,25.85c-1.027,3.164-2.556,6.58-5.58,7.787c-2.652,1.058-5.616,0.074-8.295-0.909
			c-6.387-2.344-12.773-4.687-19.16-7.031c-10.644-3.906-23.244-10.478-23.31-22.098c-0.029-5.05,2.508-9.691,4.971-14.06
			c7.455-13.224,18.266-28.319,33.047-26.683c12.37,1.369,20.32,14.185,24.293,26.307L513.823,13.323z"/>
	</g>
</g>
</svg>
